<svg width="24" height="24" viewBox="0 0 24 24" fill="none" xmlns="http://www.w3.org/2000/svg">
<g id="premium">
<path id="selo" d="M14.7303 2.53047L14.7703 2.5653L14.8228 2.55762L18.405 2.03367L19.4165 5.50983L19.4313 5.56075L19.4796 5.58266L22.7764 7.07858L21.748 10.5498L21.7329 10.6006L21.7617 10.6452L23.7264 13.686L20.9846 16.0501L20.9444 16.0848L20.9445 16.1378L20.9534 19.7581L17.3686 20.2646L17.3161 20.2721L17.2876 20.3167L15.3377 23.3671L12.0482 21.8552L12 21.833L11.9518 21.8552L8.66231 23.3671L6.71244 20.3167L6.68387 20.2721L6.63136 20.2646L3.04663 19.7581L3.05545 16.1378L3.05558 16.0848L3.01541 16.0501L0.273584 13.686L2.23829 10.6452L2.26708 10.6006L2.25201 10.5498L1.22359 7.07858L4.52041 5.58266L4.56871 5.56075L4.58352 5.50983L5.59503 2.03367L9.17725 2.55762L9.22972 2.5653L9.26972 2.53047L12 0.152999L14.7303 2.53047Z" fill="url(#paint0_linear_478_441)" stroke="url(#paint1_linear_478_441)" stroke-width="0.230769"/>
<path id="check" d="M8.53906 12.3461L10.8468 14.6538L15.3468 10.1538" stroke="white" stroke-width="1.45385" stroke-linecap="square"/>
</g>
<defs>
<linearGradient id="paint0_linear_478_441" x1="12" y1="0" x2="12" y2="24" gradientUnits="userSpaceOnUse">
<stop stop-color="#39ABE0"/>
<stop offset="1" stop-color="#1F5D7A"/>
</linearGradient>
<linearGradient id="paint1_linear_478_441" x1="12" y1="0" x2="12" y2="24" gradientUnits="userSpaceOnUse">
<stop stop-color="#1F5D7A"/>
<stop offset="1" stop-color="#39ABE0"/>
</linearGradient>
</defs>
</svg>
